<?xml version="1.0" encoding="UTF-8"?><svg id="Layer_1" xmlns="http://www.w3.org/2000/svg" viewBox="0 0 1024 1024"><defs><style>.cls-1{fill:#733980;}</style></defs><path class="cls-1" d="M45.91,184.63c10.21-4.16,18.21-.16,25.1,7.71,31.75,42.56,61.94,86.29,92.46,129.77,3.31,4.71,5.58,10.16,8.53,15.63,42.07-32,82.34-64.62,124.61-94.42C450.56,134.81,616.94,52.88,801.83,11.67c12.8-2.85,25.83-5.55,38.86-6.19,7.49-.37,18.66,1.32,21.8,6.19,2.97,4.6-.1,16.43-4.47,21.9-39.89,49.83-80.02,99.51-121.29,148.21-92.35,108.98-185.39,217.38-278.12,326.04-1.24,1.45-2.07,3.25-2.14,3.34,37.38,27.41,57.57,67.08,80.66,106.25,24.88-19.04,49.15-38.68,74.5-56.83,103.04-73.77,214.6-129.47,338.9-157.65,8.96-2.03,17.99-4.24,27.1-4.99,4.66-.38,12.6,1.08,13.68,3.83,1.7,4.31,.58,11.75-2.35,15.54-18.49,23.97-37.25,47.77-56.93,70.76-147.24,172.06-294.76,343.87-442,515.93-8.8,10.28-17.9,18.17-32.02,12.87-13.91-5.23-13.48-17.59-13.47-29.8,.11-144.88,.07-289.77,.07-434.66v-27.24c-15.34,17.42-27.65,31.13-39.67,45.09-100.91,117.26-201.75,234.58-302.68,351.83-5.14,5.98-9.85,14.15-16.49,16.6-10.24,3.78-23.69,7.54-32.61,3.78-8.85-3.73-14.38-16.4-20.13-25.9-2.07-3.42-.66-9.02-.66-13.63-.02-229.19,0-458.37,0-687.56,0,0-.27-22.93,13.53-30.76h.02Z"/></svg>